# xmcd
#
# Track frame offsets:
#	150
#	31302
#	81435
#	101930
#	124301
#	136606
#	170070
#
# Disc length: 2695 seconds
#
# Revision: 1
# Processed by: cddbd v1.5.2PL0 Copyright (c) Steve Scherf et al.
# Submitted via: audiograbber 1.83.01
#
DISCID=5e0a8507
DTITLE=Grateful Dead - 69-12-10 Thelma Theatre, Los Angeles CA
DYEAR=1900
DGENRE=
TTITLE0=I Know You Rider
TTITLE1=Black Peter
TTITLE2=Me and My Uncle
TTITLE3=Cold Rain and Snow
TTITLE4=Mama Tried
TTITLE5=High Time
TTITLE6=Easy Wind
EXTD=
EXTT0=
EXTT1=
EXTT2=
EXTT3=
EXTT4=
EXTT5=
EXTT6=
PLAYORDER=
